<svg width="55" height="12" viewBox="0 0 55 12" fill="none" xmlns="http://www.w3.org/2000/svg">
<path d="M5.71539 2.25684C5.23688 2.25684 4.80849 2.34342 4.43023 2.5166C4.05654 2.68978 3.73981 2.94043 3.48004 3.26855C3.22027 3.59212 3.02203 3.98633 2.88531 4.45117C2.74859 4.91146 2.68023 5.43099 2.68023 6.00977C2.68023 6.78451 2.78961 7.45215 3.00836 8.0127C3.22711 8.56868 3.55979 8.99707 4.00641 9.29785C4.45302 9.59408 5.01813 9.74219 5.70172 9.74219C6.12555 9.74219 6.53798 9.70117 6.93902 9.61914C7.34007 9.53711 7.75478 9.42546 8.18316 9.28418V10.6787C7.77757 10.8382 7.36741 10.9544 6.9527 11.0273C6.53798 11.1003 6.05947 11.1367 5.51715 11.1367C4.49632 11.1367 3.64866 10.9248 2.97418 10.501C2.30426 10.0771 1.80296 9.48014 1.47027 8.70996C1.14215 7.93978 0.978086 7.03743 0.978086 6.00293C0.978086 5.24642 1.0829 4.55371 1.29254 3.9248C1.50218 3.2959 1.80751 2.75358 2.20856 2.29785C2.6096 1.83757 3.10406 1.48438 3.69195 1.23828C4.2844 0.98763 4.96116 0.862305 5.72223 0.862305C6.22353 0.862305 6.71572 0.919271 7.19879 1.0332C7.68642 1.14258 8.13759 1.2998 8.55231 1.50488L7.97809 2.8584C7.63173 2.69434 7.26943 2.55306 6.89117 2.43457C6.51292 2.31608 6.12099 2.25684 5.71539 2.25684ZM11.9189 11H10.3056V0.363281H11.9189V11ZM17.3704 3.28906C18.0449 3.28906 18.6236 3.42806 19.1067 3.70605C19.5898 3.98405 19.9612 4.37826 20.221 4.88867C20.4807 5.39909 20.6106 6.00977 20.6106 6.7207V7.58203H15.5589C15.5771 8.31576 15.7731 8.88086 16.1468 9.27734C16.525 9.67383 17.0537 9.87207 17.7327 9.87207C18.2158 9.87207 18.6487 9.8265 19.0315 9.73535C19.4189 9.63965 19.8177 9.50065 20.2278 9.31836V10.624C19.8496 10.8018 19.4645 10.9316 19.0725 11.0137C18.6806 11.0957 18.2112 11.1367 17.6643 11.1367C16.9215 11.1367 16.2675 10.9932 15.7024 10.7061C15.1419 10.4144 14.7021 9.98145 14.3831 9.40723C14.0686 8.83301 13.9114 8.11979 13.9114 7.26758C13.9114 6.41992 14.055 5.69987 14.3421 5.10742C14.6292 4.51497 15.0325 4.0638 15.552 3.75391C16.0716 3.44401 16.6777 3.28906 17.3704 3.28906ZM17.3704 4.49902C16.8645 4.49902 16.4544 4.66309 16.1399 4.99121C15.83 5.31934 15.6477 5.80013 15.593 6.43359H19.0384C19.0338 6.05534 18.97 5.72038 18.847 5.42871C18.7285 5.13704 18.5462 4.90918 18.3001 4.74512C18.0585 4.58105 17.7486 4.49902 17.3704 4.49902ZM25.5289 3.28906C26.486 3.28906 27.2083 3.50098 27.6959 3.9248C28.1881 4.34863 28.4342 5.00944 28.4342 5.90723V11H27.2926L26.985 9.92676H26.9303C26.7161 10.2002 26.4951 10.4258 26.2672 10.6035C26.0394 10.7812 25.775 10.9134 25.4743 11C25.178 11.0911 24.8157 11.1367 24.3873 11.1367C23.9362 11.1367 23.5329 11.0547 23.1774 10.8906C22.8219 10.722 22.5416 10.4668 22.3366 10.125C22.1315 9.7832 22.0289 9.35026 22.0289 8.82617C22.0289 8.04688 22.3183 7.46126 22.8971 7.06934C23.4804 6.67741 24.36 6.46094 25.5358 6.41992L26.8483 6.37207V5.97559C26.8483 5.4515 26.7252 5.0778 26.4791 4.85449C26.2376 4.63118 25.8958 4.51953 25.4538 4.51953C25.0755 4.51953 24.7086 4.57422 24.3532 4.68359C23.9977 4.79297 23.6513 4.92741 23.3141 5.08691L22.7946 3.95215C23.1637 3.75618 23.583 3.59668 24.0524 3.47363C24.5263 3.35059 25.0185 3.28906 25.5289 3.28906ZM26.8414 7.38379L25.8639 7.41797C25.0618 7.44531 24.499 7.58203 24.1754 7.82812C23.8519 8.07422 23.6901 8.41146 23.6901 8.83984C23.6901 9.21354 23.8017 9.48698 24.025 9.66016C24.2483 9.82878 24.5423 9.91309 24.9069 9.91309C25.4629 9.91309 25.9232 9.75586 26.2877 9.44141C26.6569 9.1224 26.8414 8.65527 26.8414 8.04004V7.38379ZM34.6582 3.28906C34.7858 3.28906 34.9248 3.2959 35.0752 3.30957C35.2256 3.32324 35.3555 3.34147 35.4648 3.36426L35.3145 4.86816C35.2188 4.84082 35.1003 4.82031 34.959 4.80664C34.8223 4.79297 34.6992 4.78613 34.5898 4.78613C34.3027 4.78613 34.0293 4.83398 33.7695 4.92969C33.5098 5.02083 33.2796 5.16211 33.0791 5.35352C32.8786 5.54036 32.7214 5.77507 32.6074 6.05762C32.4935 6.34017 32.4365 6.66829 32.4365 7.04199V11H30.8232V3.43262H32.0811L32.2998 4.76562H32.375C32.5254 4.49674 32.7122 4.25065 32.9355 4.02734C33.1589 3.80404 33.4141 3.6263 33.7012 3.49414C33.9928 3.35742 34.3118 3.28906 34.6582 3.28906ZM43.7497 3.28906C44.7068 3.28906 45.4291 3.50098 45.9167 3.9248C46.4089 4.34863 46.655 5.00944 46.655 5.90723V11H45.5134L45.2058 9.92676H45.1511C44.9369 10.2002 44.7159 10.4258 44.488 10.6035C44.2601 10.7812 43.9958 10.9134 43.695 11C43.3988 11.0911 43.0365 11.1367 42.6081 11.1367C42.157 11.1367 41.7536 11.0547 41.3982 10.8906C41.0427 10.722 40.7624 10.4668 40.5573 10.125C40.3523 9.7832 40.2497 9.35026 40.2497 8.82617C40.2497 8.04688 40.5391 7.46126 41.1179 7.06934C41.7012 6.67741 42.5808 6.46094 43.7566 6.41992L45.0691 6.37207V5.97559C45.0691 5.4515 44.946 5.0778 44.6999 4.85449C44.4584 4.63118 44.1166 4.51953 43.6745 4.51953C43.2963 4.51953 42.9294 4.57422 42.5739 4.68359C42.2185 4.79297 41.8721 4.92741 41.5349 5.08691L41.0154 3.95215C41.3845 3.75618 41.8038 3.59668 42.2732 3.47363C42.7471 3.35059 43.2393 3.28906 43.7497 3.28906ZM45.0622 7.38379L44.0847 7.41797C43.2826 7.44531 42.7198 7.58203 42.3962 7.82812C42.0726 8.07422 41.9109 8.41146 41.9109 8.83984C41.9109 9.21354 42.0225 9.48698 42.2458 9.66016C42.4691 9.82878 42.7631 9.91309 43.1277 9.91309C43.6836 9.91309 44.1439 9.75586 44.5085 9.44141C44.8777 9.1224 45.0622 8.65527 45.0622 8.04004V7.38379ZM50.6573 11H49.044V0.363281H50.6573V11ZM54.7075 11H53.0942V0.363281H54.7075V11Z" fill="#109CF1"/>
</svg>
