<svg width="14" height="14" viewBox="0 0 14 14" fill="none" xmlns="http://www.w3.org/2000/svg">
<path d="M7.00008 1.16675C3.77425 1.16675 1.16675 3.77425 1.16675 7.00008C1.16675 10.2259 3.77425 12.8334 7.00008 12.8334C10.2259 12.8334 12.8334 10.2259 12.8334 7.00008C12.8334 3.77425 10.2259 1.16675 7.00008 1.16675ZM9.50842 9.50842C9.28092 9.73592 8.91342 9.73592 8.68592 9.50842L7.00008 7.82258L5.31425 9.50842C5.08675 9.73592 4.71925 9.73592 4.49175 9.50842C4.26425 9.28092 4.26425 8.91342 4.49175 8.68592L6.17758 7.00008L4.49175 5.31425C4.26425 5.08675 4.26425 4.71925 4.49175 4.49175C4.71925 4.26425 5.08675 4.26425 5.31425 4.49175L7.00008 6.17758L8.68592 4.49175C8.91342 4.26425 9.28092 4.26425 9.50842 4.49175C9.73592 4.71925 9.73592 5.08675 9.50842 5.31425L7.82258 7.00008L9.50842 8.68592C9.73008 8.90758 9.73008 9.28092 9.50842 9.50842Z" fill="#C4C4C4"/>
</svg>
