<svg width="80" height="80" viewBox="0 0 80 80" fill="none" xmlns="http://www.w3.org/2000/svg">
<path d="M48.6332 8.63341C47.3666 7.36675 45.6666 6.66675 43.8999 6.66675H19.9999C16.3333 6.66675 13.3333 9.66675 13.3333 13.3334V66.6668C13.3333 70.3334 16.2999 73.3334 19.9666 73.3334H59.9999C63.6666 73.3334 66.6666 70.3334 66.6666 66.6668V29.4334C66.6666 27.6667 65.9666 25.9667 64.6999 24.7334L48.6332 8.63341ZM49.9999 60.0001H29.9999C28.1666 60.0001 26.6666 58.5001 26.6666 56.6668C26.6666 54.8334 28.1666 53.3334 29.9999 53.3334H49.9999C51.8332 53.3334 53.3332 54.8334 53.3332 56.6668C53.3332 58.5001 51.8332 60.0001 49.9999 60.0001ZM49.9999 46.6667H29.9999C28.1666 46.6667 26.6666 45.1667 26.6666 43.3334C26.6666 41.5001 28.1666 40.0001 29.9999 40.0001H49.9999C51.8332 40.0001 53.3332 41.5001 53.3332 43.3334C53.3332 45.1667 51.8332 46.6667 49.9999 46.6667ZM43.3332 26.6667V11.6667L61.6666 30.0001H46.6666C44.8332 30.0001 43.3332 28.5001 43.3332 26.6667Z" fill="#C4C4C4"/>
</svg>
