<svg width="24" height="24" viewBox="0 0 24 24" fill="none" xmlns="http://www.w3.org/2000/svg">
<path d="M12.3333 15.4167C10.358 15.4167 8.75906 13.8878 8.61192 11.9503L5.88015 9.83913C5.52104 10.2897 5.19057 10.766 4.9239 11.2868C4.86433 11.4046 4.83329 11.5348 4.83329 11.6669C4.83329 11.7989 4.86433 11.9291 4.9239 12.0469C6.33614 14.8024 9.13197 16.6667 12.3333 16.6667C13.0341 16.6667 13.7101 16.5626 14.3617 16.3943L13.0104 15.3488C12.7872 15.3919 12.5606 15.4146 12.3333 15.4167ZM20.5057 16.9298L17.6268 14.7048C18.5013 13.9678 19.2205 13.0642 19.7427 12.0467C19.8022 11.9288 19.8333 11.7986 19.8333 11.6666C19.8333 11.5346 19.8022 11.4044 19.7427 11.2865C18.3304 8.53106 15.5346 6.66673 12.3333 6.66673C10.9925 6.66836 9.67354 7.00589 8.49682 7.64851L5.1838 5.08783C5.1406 5.05421 5.09119 5.02944 5.03841 5.01492C4.98563 5.0004 4.9305 4.99643 4.87619 5.00322C4.82187 5.01002 4.76942 5.02745 4.72185 5.05452C4.67427 5.0816 4.63249 5.11778 4.5989 5.16101L4.0877 5.81908C4.01989 5.90631 3.9895 6.01691 4.00323 6.12655C4.01695 6.23619 4.07366 6.33588 4.16088 6.40371L19.4828 18.2456C19.526 18.2793 19.5754 18.304 19.6281 18.3186C19.6809 18.3331 19.736 18.337 19.7904 18.3302C19.8447 18.3235 19.8971 18.306 19.9447 18.2789C19.9923 18.2519 20.0341 18.2157 20.0677 18.1725L20.5791 17.5144C20.6469 17.4271 20.6772 17.3165 20.6635 17.2069C20.6497 17.0972 20.5929 16.9975 20.5057 16.9298ZM15.7213 13.2318L14.6979 12.4407C14.784 12.1916 14.8298 11.9303 14.8333 11.6667C14.8384 11.2809 14.7529 10.8992 14.5837 10.5523C14.4145 10.2055 14.1663 9.90318 13.8591 9.66966C13.5519 9.43613 13.1942 9.27791 12.8147 9.20771C12.4352 9.13751 12.0446 9.15728 11.6742 9.26543C11.8312 9.47822 11.9161 9.73561 11.9166 10.0001C11.9127 10.0881 11.8993 10.1754 11.8765 10.2605L9.95958 8.77897C10.6255 8.22252 11.4655 7.91738 12.3333 7.91673C12.8258 7.91646 13.3136 8.01327 13.7687 8.20163C14.2238 8.38999 14.6373 8.6662 14.9855 9.01447C15.3338 9.36275 15.61 9.77625 15.7984 10.2313C15.9867 10.6864 16.0836 11.1742 16.0833 11.6667C16.0833 12.23 15.9455 12.755 15.7213 13.2321V13.2318Z" fill="#9FA2B4"/>
</svg>
